<svg width="1200" height="284" viewBox="0 0 1200 284" fill="none" xmlns="http://www.w3.org/2000/svg">
<g clip-path="url(#clip0_408_4965)">
<path d="M168.587 216.465L136.85 248.499C136.85 248.499 106.411 241.464 62.9809 197.711C62.5509 197.277 61.4204 196.192 60.2067 195.03C54.4711 213.784 43.2565 231.369 43.2565 231.369L14.1553 213.784L14.1761 213.763C14.939 212.825 39.5252 182.521 39.5252 152.062C47.3206 152.027 55.5183 149.304 63.0503 147.393C75.541 144.215 87.6364 138.957 98.5875 132.125C108.325 126.049 117.272 117.977 121.828 107.155C122.328 105.951 122.771 104.726 123.16 103.487C124.006 100.777 124.318 97.8233 123.562 95.0791C120.074 82.3525 104.219 82.6535 94.6621 86.6857C84.3768 91.0259 75.2567 98.6213 67.6069 106.693C58.1885 116.619 50.3168 128.009 43.5824 139.93C43.4784 140.133 43.3535 140.329 43.2495 140.532C43.2495 140.532 43.2357 140.553 43.2148 140.602C43.194 140.637 43.1663 140.7 43.1316 140.756C42.6184 141.807 40.5586 146.231 39.7332 150.732C39.65 151.18 39.5807 151.621 39.5182 152.069H0V35.499H39.5182V74.9461C66.5943 44.1375 123.937 21.9043 155.396 56.7591C173.449 76.7522 172.686 108.905 157.282 130.137C142.572 150.396 117.75 161.401 94.2737 167.309C94.2737 167.309 114.331 193.812 168.58 216.472L168.587 216.465Z" fill="#6F33E4"/>
<path d="M239.474 233.928C228.34 233.928 218.757 231.749 210.723 227.392C202.69 223.035 196.538 216.813 192.268 208.727C187.997 200.64 185.862 190.983 185.862 179.761C185.862 168.54 188.011 159.434 192.317 151.313C196.616 143.191 202.69 136.865 210.54 132.319C218.383 127.773 227.622 125.503 238.248 125.503C245.774 125.503 252.687 126.677 258.987 129.03C265.28 131.383 270.72 134.833 275.308 139.379C279.895 143.925 283.433 149.518 285.934 156.166C288.436 162.813 289.683 170.495 289.683 179.203V187.477H197.532V168.197H273.645L257.888 172.715C257.888 167.89 257.162 163.763 255.703 160.348C254.245 156.934 252.095 154.287 249.248 152.402C246.401 150.523 242.857 149.581 238.622 149.581C234.387 149.581 230.807 150.523 227.896 152.402C224.986 154.28 222.773 156.899 221.251 160.258C219.736 163.61 218.975 167.576 218.975 172.15V185.976C218.975 190.864 219.842 195.096 221.583 198.671C223.323 202.246 225.79 204.991 228.982 206.904C232.174 208.817 235.859 209.774 240.038 209.774C242.949 209.774 245.605 209.369 248.008 208.552C250.411 207.735 252.469 206.527 254.174 204.928C255.887 203.329 257.176 201.401 258.064 199.146L289 199.991C287.731 206.89 284.948 212.874 280.649 217.951C276.343 223.028 270.713 226.966 263.758 229.752C256.796 232.538 248.699 233.935 239.46 233.935L239.474 233.928Z" fill="white"/>
<path d="M398.923 158.982L368.079 159.736C367.635 156.475 365.944 153.779 362.998 151.649C360.06 149.52 356.374 148.451 351.942 148.451C348.017 148.451 344.712 149.219 342.027 150.756C339.335 152.292 337.996 154.38 337.996 157.012C337.996 159.079 338.835 160.902 340.512 162.466C342.189 164.037 345.268 165.259 349.764 166.132L370.172 169.896C380.735 171.837 388.613 175.133 393.8 179.77C398.986 184.407 401.58 190.587 401.58 198.296C401.58 205.502 399.458 211.78 395.216 217.108C390.981 222.436 385.175 226.577 377.804 229.524C370.433 232.47 362.005 233.944 352.512 233.944C337.39 233.944 325.467 230.857 316.736 224.677C308.005 218.504 303.008 210.209 301.74 199.804L335.05 199.05C335.811 202.877 337.742 205.775 340.843 207.751C343.944 209.727 347.869 210.711 352.611 210.711C356.98 210.711 360.518 209.915 363.238 208.316C365.958 206.717 367.318 204.636 367.318 202.06C367.318 197.611 363.012 194.567 354.408 192.94L335.903 189.365C325.34 187.36 317.447 183.813 312.226 178.736C307.004 173.66 304.397 167.075 304.397 158.989C304.397 151.901 306.306 145.889 310.14 140.931C313.966 135.98 319.392 132.167 326.418 129.506C333.444 126.839 341.759 125.512 351.378 125.512C365.739 125.512 377.05 128.487 385.308 134.443C393.567 140.4 398.105 148.584 398.923 158.989V158.982Z" fill="white"/>
<path d="M472.569 126.819V151.552H405.758V126.819H472.569ZM419.704 101.806H453.394V198.855C453.394 201.676 454.092 203.792 455.48 205.203C456.869 206.613 459.053 207.318 462.027 207.318C463.168 207.318 464.479 207.193 465.966 206.941C467.453 206.69 468.609 206.439 469.426 206.187L474.457 230.453C470.659 231.521 467.136 232.29 463.873 232.757C460.617 233.232 457.404 233.463 454.24 233.463C442.979 233.463 434.403 230.816 428.519 225.516C422.635 220.216 419.697 212.584 419.697 202.619V101.806H419.704Z" fill="white"/>
<path d="M519.656 233.838C512.884 233.838 506.859 232.693 501.581 230.402C496.295 228.119 492.166 224.683 489.192 220.103C486.218 215.529 484.732 209.761 484.732 202.799C484.732 196.968 485.76 192.045 487.818 188.037C489.876 184.022 492.716 180.767 496.359 178.254C499.995 175.747 504.188 173.819 508.93 172.472C513.673 171.124 518.74 170.265 524.116 169.888C530.127 169.322 534.968 168.757 538.64 168.191C542.304 167.626 544.982 166.753 546.659 165.559C548.336 164.364 549.175 162.71 549.175 160.573V160.098C549.175 156.648 547.97 153.953 545.567 152.012C543.164 150.07 539.873 149.093 535.694 149.093C531.198 149.093 527.612 150.07 524.927 152.012C522.235 153.953 520.515 156.585 519.754 159.909L488.72 158.876C489.601 152.479 491.962 146.76 495.788 141.712C499.614 136.663 504.9 132.697 511.636 129.813C518.373 126.929 526.519 125.49 536.075 125.49C542.783 125.49 548.978 126.272 554.671 127.843C560.365 129.408 565.333 131.698 569.568 134.708C573.803 137.717 577.094 141.383 579.441 145.713C581.781 150.035 582.95 154.958 582.95 160.475V231.946H551.162V217.184H550.401C548.442 220.822 546.004 223.859 543.093 226.303C540.183 228.748 536.787 230.619 532.897 231.897C529.007 233.182 524.588 233.824 519.656 233.824V233.838ZM530 211.828C533.608 211.828 536.878 211.095 539.824 209.621C542.769 208.148 545.109 206.13 546.849 203.553C548.59 200.983 549.457 197.974 549.457 194.524V184.65C548.505 185.153 547.35 185.607 545.99 186.012C544.63 186.424 543.129 186.815 541.48 187.185C539.831 187.562 538.175 187.876 536.498 188.128C534.82 188.379 533.221 188.63 531.706 188.882C528.478 189.322 525.744 190.09 523.496 191.186C521.248 192.282 519.557 193.644 518.415 195.278C517.274 196.905 516.71 198.881 516.71 201.2C516.71 204.649 517.943 207.282 520.41 209.097C522.876 210.92 526.068 211.821 529.993 211.821L530 211.828Z" fill="white"/>
<path d="M600.211 231.961V126.825H632.189V146.196H633.422C635.635 139.799 639.384 134.758 644.669 131.057C649.947 127.363 656.198 125.512 663.414 125.512C670.63 125.512 677.141 127.391 682.398 131.154C687.648 134.918 690.939 139.932 692.271 146.203H693.412C695.435 139.995 699.324 134.995 705.089 131.203C710.846 127.412 717.646 125.512 725.489 125.512C735.482 125.512 743.614 128.682 749.878 135.009C756.143 141.343 759.272 150.057 759.272 161.153V231.968H725.489V168.87C725.489 163.667 724.129 159.687 721.409 156.929C718.689 154.17 715.18 152.788 710.874 152.788C706.258 152.788 702.622 154.282 699.959 157.257C697.302 160.232 695.97 164.233 695.97 169.247V231.975H663.512V168.499C663.512 163.674 662.181 159.848 659.524 157.026C656.867 154.205 653.358 152.795 648.989 152.795C646.015 152.795 643.401 153.5 641.16 154.911C638.912 156.321 637.157 158.276 635.896 160.79C634.627 163.297 634 166.307 634 169.819V231.982H600.218L600.211 231.961Z" fill="white"/>
<path d="M807.816 233.838C801.044 233.838 795.019 232.693 789.741 230.402C784.456 228.119 780.326 224.683 777.352 220.103C774.379 215.529 772.892 209.761 772.892 202.799C772.892 196.968 773.921 192.045 775.978 188.037C778.036 184.022 780.876 180.767 784.519 178.254C788.155 175.747 792.348 173.819 797.091 172.472C801.833 171.124 806.9 170.265 812.276 169.888C818.287 169.322 823.129 168.757 826.8 168.191C830.464 167.626 833.142 166.753 834.819 165.559C836.496 164.364 837.335 162.71 837.335 160.573V160.098C837.335 156.648 836.13 153.953 833.727 152.012C831.324 150.07 828.033 149.093 823.854 149.093C819.359 149.093 815.772 150.07 813.087 152.012C810.395 153.953 808.676 156.585 807.914 159.909L776.88 158.876C777.761 152.479 780.122 146.76 783.948 141.712C787.775 136.663 793.06 132.697 799.797 129.813C806.533 126.929 814.679 125.49 824.235 125.49C830.944 125.49 837.138 126.272 842.831 127.843C848.525 129.408 853.493 131.698 857.729 134.708C861.964 137.717 865.255 141.383 867.601 145.713C869.941 150.035 871.11 154.958 871.11 160.475V231.946H839.322V217.184H838.561C836.602 220.822 834.164 223.859 831.254 226.303C828.343 228.748 824.947 230.619 821.057 231.897C817.167 233.182 812.749 233.824 807.816 233.824V233.838ZM818.161 211.828C821.769 211.828 825.038 211.095 827.984 209.621C830.929 208.148 833.269 206.13 835.01 203.553C836.75 200.983 837.617 197.974 837.617 194.524V184.65C836.666 185.153 835.51 185.607 834.15 186.012C832.79 186.424 831.289 186.815 829.64 187.185C827.991 187.562 826.335 187.876 824.658 188.128C822.981 188.379 821.381 188.63 819.866 188.882C816.638 189.322 813.904 190.09 811.656 191.186C809.408 192.282 807.717 193.644 806.576 195.278C805.434 196.905 804.87 198.881 804.87 201.2C804.87 204.649 806.103 207.282 808.57 209.097C811.036 210.92 814.228 211.821 818.154 211.821L818.161 211.828Z" fill="white"/>
<path d="M949.465 126.819V151.552H882.654V126.819H949.465ZM896.606 101.806H930.297V198.855C930.297 201.676 930.995 203.792 932.383 205.203C933.771 206.613 935.956 207.318 938.93 207.318C940.071 207.318 941.382 207.193 942.869 206.941C944.356 206.69 945.511 206.439 946.329 206.187L951.36 230.453C947.562 231.521 944.039 232.29 940.776 232.757C937.52 233.232 934.307 233.463 931.143 233.463C919.882 233.463 911.306 230.816 905.422 225.516C899.538 220.216 896.599 212.584 896.599 202.619V101.806H896.606Z" fill="white"/>
<path d="M965.255 231.961V126.825H997.994V146.105H999.136C1001.03 139.08 1004.18 133.892 1008.58 130.54C1012.98 127.188 1018.05 125.512 1023.81 125.512C1025.39 125.512 1027.02 125.603 1028.69 125.792C1030.36 125.98 1031.9 126.294 1033.29 126.734V155.7C1031.65 155.134 1029.53 154.708 1026.94 154.429C1024.34 154.149 1022.03 154.003 1020.01 154.003C1016.02 154.003 1012.43 154.883 1009.23 156.635C1006.03 158.388 1003.54 160.832 1001.74 163.967C999.932 167.103 999.03 170.734 999.03 174.875V231.954H965.248L965.255 231.961Z" fill="white"/>
<path d="M1072.38 110.541C1068.08 113.697 1063.53 115.282 1058.75 115.303C1053.97 115.324 1050.39 113.739 1048.01 110.541C1045.63 107.35 1045.16 103.502 1046.6 99.0052C1048.03 94.5081 1050.91 90.6815 1055.21 87.5251C1059.58 84.3269 1064.13 82.7209 1068.86 82.6999C1073.59 82.679 1077.14 84.2641 1079.53 87.4553C1081.92 90.6465 1082.41 94.5011 1081.01 98.9982C1079.62 103.495 1076.74 107.343 1072.37 110.541H1072.38ZM1046.89 231.961V126.825H1080.67V231.961H1046.89Z" fill="white"/>
<path d="M1129.31 126.818L1146.67 161.615L1164.79 126.818H1198.87L1169.25 179.484L1200 231.961H1166.12L1146.66 197.165L1127.78 231.961H1093.52L1124.36 179.484L1095.04 126.818H1129.3H1129.31Z" fill="white"/>
</g>
<defs>
<clipPath id="clip0_408_4965">
<rect width="1200" height="284" fill="white"/>
</clipPath>
</defs>
</svg>
