<svg width="184" height="44" viewBox="0 0 184 44" fill="none" xmlns="http://www.w3.org/2000/svg">
<g clip-path="url(#clip0_189_1953)">
<path d="M25.85 33.537L20.9837 38.5C20.9837 38.5 16.3163 37.41 9.65707 30.6315C9.59114 30.5643 9.4178 30.3961 9.2317 30.2161C8.35224 33.1217 6.63266 35.8461 6.63266 35.8461L2.17048 33.1216L2.17367 33.1184C2.29064 32.9731 6.06053 28.278 6.06053 23.5591C7.25583 23.5536 8.51281 23.1317 9.66771 22.8357C11.583 22.3433 13.4376 21.5288 15.1168 20.4702C16.6098 19.5288 17.9817 18.2783 18.6803 16.6016C18.7569 16.415 18.825 16.2252 18.8845 16.0333C19.0143 15.6136 19.0621 15.1559 18.9462 14.7307C18.4113 12.759 15.9803 12.8056 14.5149 13.4303C12.9378 14.1028 11.5394 15.2795 10.3664 16.53C8.92224 18.0679 7.71524 19.8325 6.68264 21.6795C6.66669 21.711 6.64754 21.7413 6.63159 21.7728C6.63159 21.7728 6.62947 21.776 6.62628 21.7836C6.62309 21.7891 6.61883 21.7988 6.61351 21.8075C6.53482 21.9702 6.21898 22.6556 6.09243 23.353C6.07967 23.4224 6.06904 23.4907 6.05946 23.5601H0V5.5H6.05946V11.6115C10.2111 6.83835 19.0036 3.39378 23.8274 8.79382C26.5955 11.8913 26.4785 16.8727 24.1166 20.1622C21.8611 23.3009 18.055 25.0059 14.4553 25.9212C14.4553 25.9212 17.5308 30.0274 25.849 33.5381L25.85 33.537Z" fill="white"/>
<path d="M36.7193 36.2425C35.0121 36.2425 33.5426 35.905 32.3108 35.2299C31.079 34.5548 30.1358 33.5909 29.481 32.3381C28.8262 31.0852 28.4988 29.589 28.4988 27.8505C28.4988 26.1119 28.8283 24.7011 29.4885 23.4429C30.1476 22.1847 31.079 21.2045 32.2827 20.5002C33.4854 19.7959 34.9019 19.4443 36.5313 19.4443C37.6853 19.4443 38.7453 19.6261 39.7113 19.9907C40.6762 20.3553 41.5103 20.8897 42.2138 21.594C42.9172 22.2983 43.4596 23.1649 43.8432 24.1948C44.2267 25.2248 44.418 26.4148 44.418 27.7639V29.0459H30.2881V26.0589H41.9587L39.5427 26.7589C39.5427 26.0113 39.4314 25.3719 39.2078 24.8429C38.9841 24.3138 38.6545 23.9038 38.218 23.6117C37.7815 23.3207 37.238 23.1746 36.5886 23.1746C35.9392 23.1746 35.3903 23.3207 34.944 23.6117C34.4978 23.9027 34.1585 24.3084 33.9251 24.8288C33.6928 25.3481 33.5761 25.9626 33.5761 26.6712V28.8133C33.5761 29.5706 33.709 30.2262 33.9759 30.7802C34.2428 31.3341 34.621 31.7593 35.1104 32.0557C35.5999 32.3521 36.165 32.5003 36.8058 32.5003C37.252 32.5003 37.6594 32.4376 38.0278 32.311C38.3963 32.1844 38.7118 31.9973 38.9733 31.7495C39.2359 31.5018 39.4336 31.2032 39.5697 30.8537L44.3132 30.9846C44.1187 32.0535 43.6919 32.9807 43.0328 33.7672C42.3726 34.5537 41.5093 35.1639 40.4428 35.5956C39.3752 36.0272 38.1337 36.2436 36.7172 36.2436L36.7193 36.2425Z" fill="white"/>
<path d="M61.168 24.6307L56.4386 24.7476C56.3705 24.2423 56.1112 23.8247 55.6595 23.4947C55.2089 23.1648 54.6438 22.9993 53.9642 22.9993C53.3623 22.9993 52.8556 23.1183 52.4439 23.3563C52.0311 23.5943 51.8258 23.9178 51.8258 24.3256C51.8258 24.6459 51.9544 24.9282 52.2116 25.1706C52.4688 25.414 52.9409 25.6033 53.6303 25.7385L56.7595 26.3217C58.3792 26.6224 59.5872 27.1331 60.3824 27.8514C61.1777 28.5698 61.5753 29.5273 61.5753 30.7216C61.5753 31.8381 61.2501 32.8107 60.5996 33.6362C59.9502 34.4617 59.0599 35.1032 57.9297 35.5598C56.7995 36.0163 55.5072 36.2446 54.0517 36.2446C51.7329 36.2446 49.9047 35.7664 48.5659 34.8089C47.2272 33.8526 46.4611 32.5673 46.2666 30.9553L51.3742 30.8385C51.4909 31.4313 51.7869 31.8803 52.2624 32.1865C52.7378 32.4927 53.3397 32.6452 54.0668 32.6452C54.7368 32.6452 55.2792 32.5219 55.6962 32.2741C56.1133 32.0264 56.3219 31.704 56.3219 31.3048C56.3219 30.6156 55.6617 30.1439 54.3424 29.8918L51.5049 29.3379C49.8852 29.0274 48.6751 28.4778 47.8744 27.6913C47.0737 26.9048 46.674 25.8846 46.674 24.6318C46.674 23.5337 46.9668 22.6022 47.5546 21.8341C48.1413 21.067 48.9733 20.4763 50.0506 20.0641C51.1278 19.6509 52.4028 19.4453 53.8777 19.4453C56.0798 19.4453 57.8141 19.9062 59.0804 20.829C60.3468 21.7519 61.0426 23.0198 61.168 24.6318V24.6307Z" fill="white"/>
<path d="M72.4604 19.6477V23.4797H62.2161V19.6477H72.4604ZM64.3544 15.7725H69.5203V30.8083C69.5203 31.2454 69.6273 31.5732 69.8402 31.7917C70.053 32.0102 70.388 32.1195 70.844 32.1195C71.019 32.1195 71.22 32.1 71.448 32.0611C71.676 32.0221 71.8532 31.9832 71.9785 31.9442L72.75 35.7037C72.1676 35.8693 71.6273 35.9883 71.1271 36.0608C70.6279 36.1343 70.1352 36.17 69.65 36.17C67.9233 36.17 66.6084 35.76 65.7061 34.9389C64.8039 34.1177 64.3533 32.9352 64.3533 31.3914V15.7725H64.3544Z" fill="white"/>
<path d="M79.6805 36.2282C78.6421 36.2282 77.7183 36.0508 76.9089 35.6959C76.0986 35.3421 75.4654 34.8099 75.0094 34.1001C74.5534 33.3915 74.3254 32.4979 74.3254 31.4193C74.3254 30.5159 74.4832 29.7532 74.7987 29.1322C75.1142 28.5101 75.5497 28.006 76.1083 27.6165C76.6658 27.2281 77.3087 26.9295 78.0359 26.7207C78.7631 26.5119 79.54 26.3788 80.3644 26.3204C81.2861 26.2328 82.0284 26.1452 82.5914 26.0575C83.1532 25.9699 83.5638 25.8347 83.821 25.6497C84.0782 25.4647 84.2067 25.2083 84.2067 24.8772V24.8036C84.2067 24.2692 84.022 23.8516 83.6535 23.5508C83.2851 23.2501 82.7805 23.0986 82.1397 23.0986C81.4504 23.0986 80.9004 23.2501 80.4887 23.5508C80.0759 23.8516 79.8123 24.2595 79.6956 24.7744L74.937 24.6143C75.0721 23.6233 75.434 22.7373 76.0208 21.9551C76.6075 21.1729 77.4179 20.5584 78.4508 20.1116C79.4838 19.6648 80.7329 19.4419 82.1981 19.4419C83.2267 19.4419 84.1765 19.5631 85.0496 19.8065C85.9226 20.0488 86.6844 20.4037 87.3338 20.87C87.9831 21.3362 88.4877 21.9042 88.8476 22.575C89.2063 23.2447 89.3857 24.0074 89.3857 24.8621V35.935H84.5114V33.6479H84.3948C84.0944 34.2116 83.7205 34.6822 83.2743 35.0608C82.828 35.4395 82.3072 35.7294 81.7108 35.9274C81.1143 36.1265 80.4368 36.226 79.6805 36.226V36.2282ZM81.2667 32.8181C81.8199 32.8181 82.3212 32.7045 82.7729 32.4763C83.2246 32.248 83.5833 31.9353 83.8502 31.5361C84.1171 31.138 84.25 30.6717 84.25 30.1373V28.6075C84.1041 28.6854 83.9269 28.7557 83.7184 28.8185C83.5098 28.8823 83.2797 28.9429 83.0268 29.0002C82.774 29.0586 82.5201 29.1073 82.2629 29.1463C82.0057 29.1852 81.7605 29.2242 81.5281 29.2631C81.0333 29.3313 80.614 29.4503 80.2694 29.6201C79.9247 29.79 79.6653 30.0009 79.4903 30.2541C79.3153 30.5062 79.2288 30.8123 79.2288 31.1715C79.2288 31.706 79.4179 32.1138 79.7961 32.3951C80.1743 32.6775 80.6637 32.817 81.2656 32.817L81.2667 32.8181Z" fill="white"/>
<path d="M92.0322 35.9373V19.6487H96.9356V22.6498H97.1247C97.464 21.6588 98.0388 20.8777 98.8492 20.3043C99.6585 19.732 100.617 19.4453 101.723 19.4453C102.83 19.4453 103.828 19.7363 104.634 20.3195C105.439 20.9026 105.944 21.6794 106.148 22.6509H106.323C106.633 21.6891 107.23 20.9145 108.114 20.327C108.996 19.7396 110.039 19.4453 111.242 19.4453C112.774 19.4453 114.021 19.9365 114.981 20.9167C115.942 21.8979 116.422 23.2481 116.422 24.9672V35.9384H111.242V26.1626C111.242 25.3566 111.033 24.74 110.616 24.3126C110.199 23.8853 109.661 23.6711 109.001 23.6711C108.293 23.6711 107.735 23.9026 107.327 24.3635C106.92 24.8244 106.715 25.4443 106.715 26.2211V35.9395H101.738V26.1053C101.738 25.3577 101.534 24.7649 101.127 24.3278C100.72 23.8907 100.181 23.6722 99.5115 23.6722C99.0556 23.6722 98.6547 23.7814 98.3111 24C97.9664 24.2185 97.6974 24.5214 97.504 24.9109C97.3095 25.2993 97.2133 25.7656 97.2133 26.3098V35.9406H92.0333L92.0322 35.9373Z" fill="white"/>
<path d="M123.865 36.2282C122.827 36.2282 121.903 36.0508 121.094 35.6959C120.283 35.3421 119.65 34.8099 119.194 34.1001C118.738 33.3915 118.51 32.4979 118.51 31.4193C118.51 30.5159 118.668 29.7532 118.983 29.1322C119.299 28.5101 119.734 28.006 120.293 27.6165C120.85 27.2281 121.493 26.9295 122.221 26.7207C122.948 26.5119 123.725 26.3788 124.549 26.3204C125.471 26.2328 126.213 26.1452 126.776 26.0575C127.338 25.9699 127.748 25.8347 128.006 25.6497C128.263 25.4647 128.391 25.2083 128.391 24.8772V24.8036C128.391 24.2692 128.207 23.8516 127.838 23.5508C127.47 23.2501 126.965 23.0986 126.324 23.0986C125.635 23.0986 125.085 23.2501 124.673 23.5508C124.261 23.8516 123.997 24.2595 123.88 24.7744L119.122 24.6143C119.257 23.6233 119.619 22.7373 120.205 21.9551C120.792 21.1729 121.602 20.5584 122.635 20.1116C123.668 19.6648 124.917 19.4419 126.383 19.4419C127.411 19.4419 128.361 19.5631 129.234 19.8065C130.107 20.0488 130.869 20.4037 131.518 20.87C132.168 21.3362 132.672 21.9042 133.032 22.575C133.391 23.2447 133.57 24.0074 133.57 24.8621V35.935H128.696V33.6479H128.579C128.279 34.2116 127.905 34.6822 127.459 35.0608C127.013 35.4395 126.492 35.7294 125.895 35.9274C125.299 36.1265 124.621 36.226 123.865 36.226V36.2282ZM125.451 32.8181C126.004 32.8181 126.506 32.7045 126.957 32.4763C127.409 32.248 127.768 31.9353 128.035 31.5361C128.302 31.138 128.435 30.6717 128.435 30.1373V28.6075C128.289 28.6854 128.111 28.7557 127.903 28.8185C127.694 28.8823 127.464 28.9429 127.211 29.0002C126.959 29.0586 126.705 29.1073 126.447 29.1463C126.19 29.1852 125.945 29.2242 125.713 29.2631C125.218 29.3313 124.799 29.4503 124.454 29.6201C124.109 29.79 123.85 30.0009 123.675 30.2541C123.5 30.5062 123.413 30.8123 123.413 31.1715C123.413 31.706 123.602 32.1138 123.981 32.3951C124.359 32.6775 124.848 32.817 125.45 32.817L125.451 32.8181Z" fill="white"/>
<path d="M145.584 19.6477V23.4797H135.34V19.6477H145.584ZM137.48 15.7725H142.645V30.8083C142.645 31.2454 142.752 31.5732 142.965 31.7917C143.178 32.0102 143.513 32.1195 143.969 32.1195C144.144 32.1195 144.345 32.1 144.573 32.0611C144.801 32.0221 144.978 31.9832 145.104 31.9442L145.875 35.7037C145.293 35.8693 144.752 35.9883 144.252 36.0608C143.753 36.1343 143.26 36.17 142.775 36.17C141.048 36.17 139.733 35.76 138.831 34.9389C137.929 34.1177 137.478 32.9352 137.478 31.3914V15.7725H137.48Z" fill="white"/>
<path d="M148.006 35.9373V19.6487H153.026V22.6357H153.201C153.491 21.5474 153.974 20.7436 154.649 20.2243C155.323 19.705 156.101 19.4453 156.984 19.4453C157.226 19.4453 157.476 19.4594 157.733 19.4886C157.989 19.5178 158.225 19.5665 158.438 19.6346V24.1222C158.186 24.0346 157.861 23.9686 157.463 23.9253C157.066 23.8821 156.711 23.8593 156.401 23.8593C155.79 23.8593 155.239 23.9957 154.749 24.2672C154.259 24.5388 153.876 24.9174 153.6 25.4032C153.323 25.8889 153.185 26.4515 153.185 27.093V35.9362H148.005L148.006 35.9373Z" fill="white"/>
<path d="M164.432 17.1259C163.771 17.6149 163.074 17.8605 162.342 17.8638C161.609 17.867 161.06 17.6214 160.695 17.1259C160.33 16.6315 160.258 16.0354 160.478 15.3387C160.698 14.642 161.139 14.0491 161.799 13.5601C162.468 13.0646 163.166 12.8158 163.891 12.8125C164.616 12.8093 165.162 13.0549 165.528 13.5493C165.893 14.0437 165.969 14.6409 165.755 15.3376C165.541 16.0343 165.1 16.6304 164.43 17.1259H164.432ZM160.523 35.9375V19.6489H165.703V35.9375H160.523Z" fill="white"/>
<path d="M173.16 19.6475L175.823 25.0384L178.602 19.6475H183.826L179.286 27.8069L184 35.9372H178.805L175.822 30.5462L172.926 35.9372H167.672L172.402 27.8069L167.906 19.6475H173.159H173.16Z" fill="white"/>
</g>
<defs>
<clipPath id="clip0_189_1953">
<rect width="184" height="44" fill="white"/>
</clipPath>
</defs>
</svg>
